
<svg width="38" height="38" viewBox="0 0 38 38" fill="none" xmlns="http://www.w3.org/2000/svg">
<path fill-rule="evenodd" clip-rule="evenodd" d="M19.0005 3.01364L18.3036 7.24416C17.3687 12.9198 12.9203 17.3683 7.24465 18.3031L3.01413 19L7.24464 19.6968C12.9203 20.6317 17.3687 25.0801 18.3036 30.7558L19.0005 34.9863L19.6973 30.7558C20.6322 25.0801 25.0806 20.6317 30.7563 19.6968L34.9868 19L30.7563 18.3031C25.0806 17.3683 20.6322 12.9198 19.6973 7.24416L19.0005 3.01364ZM17.6578 7.13778L18.6775 0.946777L19.3234 0.946777L20.3431 7.13778C21.2324 12.5366 25.4638 16.768 30.8626 17.6573L37.0536 18.677V19.3229L30.8626 20.3426C25.4638 21.2319 21.2324 25.4634 20.3431 30.8622L19.3234 37.0532H18.6775L17.6578 30.8622C16.7685 25.4634 12.5371 21.2319 7.13826 20.3426L0.947266 19.3229L0.947266 18.677L7.13827 17.6573C12.5371 16.768 16.7685 12.5366 17.6578 7.13778Z" fill="black" fill-opacity="0.5"/>
</svg>
