<svg width="36" height="36" viewBox="0 0 36 36" fill="none" xmlns="http://www.w3.org/2000/svg">
<g clip-path="url(#clip0_3481_9385)">
<path d="M17.9973 35.9876C27.9305 35.9876 35.9829 27.9352 35.9829 18.002C35.9829 8.06879 27.9305 0.0163574 17.9973 0.0163574C8.06415 0.0163574 0.0117188 8.06879 0.0117188 18.002C0.0117188 27.9352 8.06415 35.9876 17.9973 35.9876Z" fill="url(#paint0_linear_3481_9385)"/>
<path fill-rule="evenodd" clip-rule="evenodd" d="M8.96681 16.7474V13.216C8.96608 13.1024 8.99559 12.9906 9.05233 12.8922C9.10907 12.7938 9.19097 12.7122 9.28964 12.656L17.6752 7.86455C17.7725 7.80838 17.8828 7.77881 17.9952 7.77881C18.1075 7.77881 18.2179 7.80838 18.3152 7.86455L21.4151 9.63312C21.4347 9.64439 21.451 9.66062 21.4623 9.68018C21.4736 9.69974 21.4795 9.72194 21.4795 9.74454C21.4795 9.76714 21.4736 9.78933 21.4623 9.8089C21.451 9.82846 21.4347 9.8447 21.4151 9.85597L9.16109 16.8588C9.1415 16.8704 9.11916 16.8767 9.09638 16.8768C9.07359 16.877 9.05117 16.8711 9.0314 16.8598C9.01163 16.8485 8.99523 16.8321 8.98388 16.8123C8.97253 16.7926 8.96665 16.7701 8.96681 16.7474ZM9.09836 19.9928L24.1926 11.3672C24.2312 11.3449 24.2751 11.3331 24.3197 11.3331C24.3643 11.3331 24.4082 11.3449 24.4469 11.3672L26.704 12.6557C26.8045 12.7131 26.8877 12.7963 26.945 12.8969C27.0023 12.9974 27.0316 13.1115 27.0297 13.2272V15.7986C27.0296 15.8444 27.0175 15.8895 26.9944 15.9291C26.9713 15.9688 26.9381 16.0016 26.8983 16.0243L11.8041 24.6499C11.7642 24.67 11.7202 24.6805 11.6755 24.6805C11.6308 24.6805 11.5868 24.67 11.5469 24.6499L9.29265 23.3585C9.19172 23.3017 9.10813 23.2185 9.05077 23.1179C8.99341 23.0172 8.96444 22.9029 8.96695 22.7871V20.2157C8.96691 20.1702 8.97907 20.1255 9.00219 20.0863C9.02531 20.0471 9.05852 20.0148 9.09836 19.9928ZM14.5815 26.3707L17.6787 28.1421C17.7764 28.1969 17.8866 28.2257 17.9987 28.2257C18.1107 28.2257 18.2209 28.1969 18.3187 28.1421L26.7043 23.3479C26.8048 23.2906 26.8881 23.2073 26.9454 23.1068C27.0027 23.0062 27.0319 22.8921 27.0301 22.7765V19.2565C27.0294 19.234 27.023 19.2121 27.0114 19.1929C26.9999 19.1736 26.9836 19.1576 26.9641 19.1464C26.9446 19.1353 26.9226 19.1293 26.9001 19.129C26.8776 19.1288 26.8555 19.1343 26.8358 19.1451L14.5815 26.1479C14.562 26.1591 14.5457 26.1754 14.5344 26.1949C14.5231 26.2145 14.5171 26.2367 14.5171 26.2593C14.5171 26.2819 14.5231 26.3041 14.5344 26.3236C14.5457 26.3432 14.562 26.3594 14.5815 26.3707Z" fill="white"/>
</g>
<defs>
<linearGradient id="paint0_linear_3481_9385" x1="0.0117191" y1="6.44489" x2="30.3909" y2="34.7552" gradientUnits="userSpaceOnUse">
<stop offset="0.065163" stop-color="#60FEFE"/>
<stop offset="0.208512" stop-color="#3385FF"/>
<stop offset="0.462422" stop-color="#3347FF"/>
<stop offset="0.810839" stop-color="#CB60FE"/>
<stop offset="1" stop-color="#FE8660"/>
</linearGradient>
<clipPath id="clip0_3481_9385">
<rect width="35.9712" height="35.9712" fill="white" transform="translate(0.0117188 0.0163574)"/>
</clipPath>
</defs>
</svg>
