<svg width="736" height="631" viewBox="0 0 736 631" fill="none" xmlns="http://www.w3.org/2000/svg">
<path d="M389.578 255.484C390.443 255.975 391.307 256.468 392.172 256.964L391.924 257.398C392.644 257.811 393.364 258.225 394.084 258.641C394.804 259.056 395.523 259.473 396.241 259.89L396.492 259.458C397.354 259.959 398.213 260.461 399.071 260.965L398.818 261.396C400.247 262.234 401.67 263.075 403.088 263.919L403.343 263.49C404.195 263.996 405.044 264.504 405.891 265.013L405.634 265.441C407.054 266.294 408.469 267.15 409.877 268.008L410.138 267.581C410.989 268.1 411.839 268.62 412.686 269.14L412.424 269.566C413.836 270.434 415.241 271.304 416.641 272.177L416.906 271.752C417.746 272.276 418.585 272.801 419.421 273.327L419.155 273.75C420.558 274.633 421.954 275.517 423.345 276.405L423.614 275.983C424.455 276.52 425.294 277.057 426.13 277.595L425.859 278.016C427.252 278.912 428.639 279.811 430.02 280.713L430.293 280.294C431.122 280.835 431.949 281.377 432.774 281.92L432.499 282.338C433.884 283.25 435.263 284.165 436.635 285.082L436.913 284.666C437.742 285.22 438.569 285.775 439.394 286.331L439.114 286.745C440.488 287.671 441.854 288.599 443.215 289.529L443.497 289.116C444.313 289.675 445.128 290.234 445.94 290.794L445.656 291.206C447.023 292.149 448.384 293.095 449.737 294.042L450.024 293.633C450.841 294.204 451.655 294.777 452.467 295.35L452.178 295.758C453.53 296.713 454.875 297.67 456.213 298.629L456.504 298.222C457.308 298.798 458.108 299.375 458.907 299.952L458.614 300.357C459.963 301.332 461.305 302.31 462.639 303.289L462.935 302.886C463.738 303.475 464.539 304.066 465.337 304.656L465.039 305.058C466.368 306.042 467.689 307.028 469.003 308.015L469.303 307.616C470.094 308.21 470.882 308.805 471.667 309.401L471.365 309.799C472.693 310.807 474.014 311.816 475.327 312.828L475.632 312.431C476.42 313.039 477.206 313.646 477.988 314.255L477.681 314.649C478.985 315.663 480.28 316.677 481.567 317.693L481.877 317.301C482.659 317.918 483.437 318.536 484.213 319.154L483.901 319.545C485.204 320.583 486.498 321.622 487.783 322.663L488.098 322.275C488.87 322.9 489.639 323.525 490.404 324.151L490.088 324.538C491.365 325.582 492.634 326.627 493.893 327.674L494.213 327.289C494.984 327.93 495.752 328.571 496.517 329.212L496.196 329.595C497.469 330.663 498.733 331.733 499.988 332.803L500.313 332.422C501.066 333.065 501.817 333.708 502.564 334.352L502.237 334.731C503.494 335.813 504.742 336.897 505.979 337.981L506.309 337.605C507.061 338.264 507.81 338.923 508.555 339.583L508.224 339.957C509.464 341.056 510.695 342.155 511.916 343.255L512.251 342.883C512.984 343.544 513.714 344.204 514.44 344.865L514.103 345.235C515.339 346.359 516.564 347.485 517.778 348.61L518.118 348.244C518.849 348.921 519.576 349.599 520.299 350.276L519.957 350.641C521.161 351.769 522.354 352.898 523.536 354.027L523.882 353.665C524.605 354.356 525.324 355.046 526.039 355.737L525.692 356.096C526.891 357.255 528.079 358.413 529.255 359.571L529.606 359.215C530.312 359.91 531.014 360.606 531.712 361.302L531.359 361.656C532.534 362.827 533.697 363.998 534.849 365.168L535.205 364.818C535.908 365.532 536.606 366.246 537.299 366.961L536.94 367.309C538.095 368.498 539.237 369.686 540.366 370.874L540.729 370.53C541.409 371.245 542.085 371.961 542.756 372.676L542.391 373.018C543.538 374.24 544.671 375.461 545.79 376.681L546.159 376.343C546.831 377.076 547.499 377.809 548.161 378.541L547.79 378.877C548.9 380.103 549.995 381.328 551.076 382.551L551.451 382.22C552.117 382.974 552.778 383.727 553.433 384.48L553.056 384.808C554.147 386.061 555.223 387.312 556.283 388.562L556.665 388.239C557.302 388.99 557.934 389.74 558.56 390.49L558.177 390.81C559.253 392.099 560.314 393.385 561.358 394.67L561.746 394.354C562.374 395.126 562.996 395.898 563.612 396.668L563.221 396.98C564.256 398.275 565.273 399.567 566.274 400.856L566.669 400.549C567.286 401.344 567.896 402.138 568.5 402.931L568.103 403.234C569.108 404.553 570.095 405.869 571.064 407.183L571.467 406.886C572.057 407.686 572.641 408.485 573.217 409.282L572.812 409.575C573.794 410.933 574.757 412.288 575.7 413.639L576.11 413.353C576.677 414.165 577.236 414.976 577.789 415.786L577.376 416.068C578.318 417.448 579.24 418.825 580.14 420.197L580.558 419.923C581.107 420.759 581.647 421.594 582.18 422.427L581.759 422.696C582.651 424.091 583.522 425.481 584.369 426.866L584.796 426.605C585.323 427.466 585.841 428.325 586.351 429.182L585.921 429.438C586.769 430.864 587.593 432.284 588.393 433.698L588.828 433.452C589.321 434.325 589.805 435.195 590.28 436.063L589.841 436.303C590.643 437.77 591.419 439.231 592.168 440.685L592.613 440.456C593.064 441.333 593.506 442.207 593.939 443.08L593.491 443.302C594.239 444.811 594.958 446.313 595.646 447.807L596.1 447.597C596.515 448.496 596.918 449.391 597.311 450.284L596.853 450.485C597.53 452.024 598.175 453.553 598.786 455.072L599.25 454.885C599.622 455.808 599.981 456.727 600.328 457.642L599.861 457.82C600.455 459.387 601.013 460.943 601.536 462.487L602.009 462.327C602.329 463.272 602.635 464.213 602.928 465.15L602.451 465.299C602.95 466.896 603.409 468.48 603.828 470.051L604.311 469.922C604.569 470.887 604.811 471.848 605.039 472.803L604.552 472.919C604.94 474.546 605.283 476.158 605.58 477.754L606.072 477.662C606.255 478.643 606.421 479.619 606.571 480.588L606.077 480.664C606.331 482.317 606.536 483.952 606.69 485.568L607.188 485.52C607.283 486.511 607.359 487.495 607.415 488.471L606.916 488.5C607.013 490.169 607.055 491.816 607.04 493.441L607.54 493.446C607.53 494.436 607.5 495.419 607.449 496.393L606.95 496.366C606.862 498.033 606.713 499.674 606.501 501.289L606.996 501.354C606.867 502.341 606.714 503.319 606.537 504.287L606.045 504.197C605.749 505.823 605.386 507.42 604.956 508.989L605.438 509.121C605.174 510.083 604.884 511.034 604.57 511.974L604.096 511.815C603.575 513.371 602.983 514.897 602.321 516.391L602.778 516.593C602.376 517.5 601.947 518.395 601.493 519.278L601.048 519.049C600.673 519.778 600.28 520.499 599.869 521.211C599.458 521.923 599.03 522.624 598.587 523.313L599.007 523.584C598.469 524.419 597.908 525.237 597.324 526.039L596.92 525.744C595.958 527.065 594.933 528.34 593.845 529.569L594.22 529.9C593.563 530.643 592.884 531.369 592.183 532.078L591.828 531.727C590.685 532.884 589.483 533.997 588.223 535.067L588.546 535.448C587.796 536.085 587.026 536.706 586.236 537.312L585.932 536.915C584.639 537.906 583.293 538.856 581.893 539.765L582.166 540.184C581.348 540.716 580.512 541.233 579.659 541.736L579.405 541.305C578.006 542.131 576.558 542.919 575.064 543.669L575.289 544.116C574.415 544.555 573.525 544.981 572.62 545.395L572.412 544.94C570.936 545.614 569.417 546.254 567.858 546.86L568.039 547.326C567.125 547.682 566.198 548.025 565.256 548.357L565.09 547.886C563.559 548.425 561.992 548.935 560.389 549.413L560.532 549.892C559.591 550.173 558.638 550.443 557.673 550.702L557.543 550.22C555.973 550.642 554.371 551.036 552.739 551.403L552.848 551.891C551.891 552.105 550.923 552.311 549.944 552.506L549.846 552.016C548.247 552.336 546.621 552.63 544.966 552.899L545.047 553.393C544.08 553.55 543.105 553.698 542.12 553.838L542.05 553.343C540.428 553.573 538.782 553.779 537.111 553.962L537.166 554.459C536.196 554.565 535.219 554.664 534.233 554.754L534.188 554.256C532.55 554.406 530.89 554.535 529.209 554.642L529.24 555.141C528.269 555.202 527.29 555.257 526.305 555.304L526.281 554.805C524.647 554.883 522.995 554.942 521.323 554.98L521.334 555.48C520.345 555.503 519.349 555.519 518.347 555.528L518.342 555.028C516.718 555.043 515.076 555.04 513.418 555.018L513.411 555.518C512.414 555.505 511.41 555.486 510.401 555.46L510.414 554.96C508.791 554.919 507.152 554.86 505.498 554.785L505.475 555.284C504.487 555.239 503.494 555.188 502.496 555.131L502.524 554.632C500.886 554.538 499.233 554.429 497.566 554.303L497.528 554.801C496.551 554.728 495.569 554.648 494.582 554.564L494.625 554.066C492.983 553.925 491.329 553.768 489.661 553.597L489.61 554.094C488.631 553.993 487.648 553.887 486.66 553.776L486.716 553.279C485.094 553.097 483.46 552.9 481.815 552.689L481.751 553.185C480.763 553.058 479.77 552.927 478.773 552.79L478.841 552.294C477.224 552.072 475.596 551.837 473.958 551.588L473.883 552.082C472.908 551.934 471.929 551.781 470.947 551.624L471.026 551.13C469.391 550.868 467.747 550.593 466.093 550.305L466.007 550.797C465.044 550.629 464.079 550.457 463.11 550.281L463.199 549.789C461.586 549.495 459.965 549.189 458.334 548.871L458.238 549.362C457.259 549.171 456.276 548.975 455.291 548.775L455.39 548.285C453.79 547.96 452.181 547.624 450.565 547.277L450.46 547.765C449.494 547.558 448.526 547.346 447.555 547.13L447.663 546.642C446.047 546.283 444.423 545.912 442.792 545.53L442.678 546.017C441.723 545.793 440.765 545.566 439.805 545.334L439.922 544.848C438.329 544.464 436.729 544.069 435.122 543.664L434.999 544.149C434.034 543.905 433.067 543.658 432.097 543.407L432.222 542.923C430.633 542.511 429.037 542.089 427.435 541.657L427.305 542.14C426.354 541.883 425.4 541.623 424.445 541.359L424.578 540.877C422.987 540.437 421.39 539.988 419.787 539.529L419.649 540.009C418.694 539.735 417.736 539.458 416.777 539.177L416.917 538.697C415.349 538.237 413.774 537.768 412.195 537.29L412.05 537.768C411.102 537.481 410.151 537.19 409.199 536.896L409.347 536.418C407.765 535.929 406.178 535.431 404.586 534.923L404.434 535.4C403.499 535.101 402.562 534.8 401.624 534.495L401.778 534.02C400.215 533.512 398.648 532.996 397.076 532.47L396.918 532.945C395.974 532.629 395.029 532.31 394.082 531.988L394.243 531.515C392.685 530.985 391.123 530.447 389.557 529.899L389.392 530.371C388.461 530.046 387.529 529.718 386.595 529.387L386.763 528.916C385.208 528.364 383.65 527.804 382.088 527.235L381.917 527.705C380.979 527.363 380.04 527.019 379.1 526.671L379.273 526.202C377.737 525.634 376.198 525.058 374.655 524.474L374.478 524.942C373.553 524.592 372.627 524.239 371.7 523.883L371.879 523.416C370.335 522.823 368.788 522.222 367.237 521.613L367.055 522.078C366.131 521.716 365.207 521.35 364.282 520.982L364.467 520.517C362.943 519.91 361.417 519.296 359.888 518.674L359.699 519.137C358.781 518.764 357.862 518.387 356.942 518.008L357.133 517.546C355.601 516.915 354.066 516.275 352.529 515.629L352.335 516.09C351.426 515.707 350.517 515.323 349.607 514.935L349.803 514.475C348.291 513.831 346.777 513.18 345.26 512.521L345.061 512.98C344.151 512.584 343.239 512.186 342.327 511.785L342.528 511.327C341.013 510.661 339.496 509.988 337.976 509.307L337.772 509.763C336.873 509.361 335.973 508.955 335.073 508.548L335.279 508.092C333.78 507.413 332.279 506.727 330.776 506.033L330.567 506.487C329.664 506.071 328.761 505.652 327.858 505.23L328.069 504.777C326.572 504.079 325.073 503.373 323.572 502.661L323.358 503.112C322.467 502.689 321.575 502.264 320.683 501.836L320.9 501.385C319.414 500.672 317.927 499.952 316.439 499.226L316.219 499.675C315.326 499.239 314.432 498.8 313.537 498.359L313.759 497.911C312.278 497.181 310.796 496.444 309.314 495.7L309.09 496.147C308.207 495.705 307.324 495.26 306.441 494.813L306.667 494.366C305.196 493.621 303.724 492.87 302.251 492.112L302.022 492.556C301.138 492.101 300.253 491.643 299.368 491.184L299.599 490.74C298.135 489.979 296.67 489.212 295.205 488.438L294.971 488.88C294.098 488.419 293.224 487.955 292.35 487.489L292.585 487.048C291.129 486.272 289.673 485.49 288.216 484.701L287.978 485.141C287.103 484.667 286.229 484.192 285.354 483.713L285.593 483.275C284.145 482.484 282.697 481.686 281.249 480.883L281.006 481.32C280.142 480.841 279.277 480.359 278.413 479.875L278.657 479.439C277.217 478.633 275.777 477.821 274.337 477.003L274.09 477.438C273.225 476.947 272.361 476.453 271.496 475.958L271.745 475.524C271.024 475.111 270.304 474.697 269.584 474.281C268.864 473.865 268.145 473.449 267.427 473.031L267.176 473.463C266.315 472.962 265.455 472.46 264.597 471.957L264.85 471.526C263.422 470.688 261.998 469.846 260.58 469.002L260.325 469.432C259.473 468.925 258.624 468.418 257.777 467.909L258.034 467.48C256.614 466.627 255.2 465.772 253.791 464.913L253.531 465.34C252.679 464.822 251.83 464.302 250.982 463.781L251.244 463.355C249.833 462.488 248.427 461.618 247.027 460.745L246.762 461.169C245.922 460.645 245.084 460.12 244.247 459.594L244.513 459.171C243.111 458.289 241.714 457.404 240.323 456.517L240.054 456.938C239.213 456.402 238.375 455.865 237.538 455.326L237.809 454.906C236.416 454.009 235.029 453.11 233.648 452.209L233.375 452.628C232.546 452.086 231.719 451.544 230.894 451.001L231.169 450.584C229.784 449.671 228.405 448.757 227.033 447.84L226.755 448.255C225.926 447.701 225.099 447.146 224.274 446.591L224.554 446.176C223.181 445.251 221.814 444.323 220.454 443.392L220.171 443.805C219.355 443.247 218.54 442.687 217.729 442.127L218.013 441.716C216.645 440.773 215.285 439.827 213.931 438.879L213.644 439.289C212.827 438.717 212.013 438.145 211.201 437.572L211.49 437.163C210.138 436.208 208.793 435.252 207.455 434.293L207.164 434.699C206.36 434.124 205.56 433.547 204.762 432.97L205.054 432.565C203.705 431.589 202.363 430.612 201.029 429.632L200.733 430.036C199.93 429.446 199.129 428.856 198.332 428.265L198.629 427.863C197.301 426.88 195.979 425.894 194.666 424.906L194.365 425.306C193.575 424.712 192.787 424.117 192.001 423.521L192.304 423.123C190.975 422.115 189.654 421.105 188.341 420.094L188.036 420.49C187.248 419.883 186.462 419.275 185.68 418.667L185.987 418.272C184.683 417.259 183.388 416.244 182.101 415.228L181.791 415.621C181.01 415.004 180.231 414.386 179.455 413.768L179.767 413.377C178.464 412.339 177.17 411.299 175.885 410.258L175.57 410.647C174.798 410.022 174.029 409.397 173.264 408.771L173.58 408.384C172.303 407.34 171.034 406.294 169.775 405.248L169.455 405.633C168.684 404.992 167.916 404.351 167.151 403.71L167.473 403.327C166.199 402.258 164.935 401.189 163.68 400.119L163.355 400.499C162.602 399.856 161.851 399.213 161.105 398.57L161.431 398.191C160.174 397.108 158.927 396.025 157.689 394.94L157.359 395.317C156.607 394.658 155.858 393.998 155.113 393.339L155.445 392.964C154.204 391.866 152.973 390.767 151.752 389.667L151.417 390.038C150.684 389.378 149.954 388.717 149.229 388.057L149.565 387.687C148.33 386.562 147.105 385.437 145.89 384.311L145.55 384.678C144.82 384.001 144.093 383.323 143.369 382.645L143.711 382.281C142.507 381.152 141.314 380.023 140.132 378.895L139.786 379.256C139.063 378.566 138.344 377.875 137.629 377.185L137.977 376.825C136.777 375.667 135.59 374.509 134.413 373.35L134.063 373.707C133.356 373.011 132.654 372.316 131.956 371.62L132.309 371.266C131.134 370.095 129.971 368.924 128.82 367.753L128.463 368.104C127.761 367.389 127.063 366.675 126.369 365.961L126.728 365.613C125.573 364.424 124.431 363.235 123.302 362.047L122.94 362.392C122.259 361.676 121.583 360.961 120.912 360.246L121.277 359.903C120.13 358.682 118.997 357.461 117.878 356.24L117.509 356.578C116.837 355.845 116.169 355.113 115.507 354.381L115.878 354.045C114.768 352.819 113.673 351.594 112.592 350.37L112.217 350.701C111.551 349.948 110.89 349.195 110.235 348.442L110.612 348.114C109.522 346.861 108.446 345.609 107.385 344.359L107.004 344.683C106.366 343.932 105.734 343.182 105.108 342.432L105.491 342.111C104.415 340.823 103.354 339.536 102.31 338.252L101.922 338.567C101.294 337.795 100.672 337.024 100.056 336.253L100.447 335.941C99.4126 334.647 98.3948 333.355 97.3939 332.066L96.999 332.372C96.3821 331.578 95.7717 330.784 95.1677 329.991L95.5654 329.688C94.5602 328.369 93.5729 327.052 92.6037 325.739L92.2013 326.036C91.6112 325.236 91.0277 324.437 90.4509 323.639L90.8561 323.346C89.8738 321.988 88.9111 320.633 87.9682 319.282L87.5582 319.568C86.9914 318.756 86.4318 317.945 85.8793 317.136L86.2923 316.854C85.3498 315.473 84.4283 314.097 83.5279 312.724L83.1099 312.998C82.5614 312.162 82.0207 311.328 81.4879 310.495L81.909 310.226C81.0168 308.831 80.1466 307.441 79.2988 306.056L78.8724 306.317C78.3453 305.456 77.8268 304.597 77.317 303.739L77.7467 303.484C76.8988 302.058 76.0751 300.638 75.2756 299.224L74.8404 299.47C74.3471 298.597 73.8631 297.727 73.3884 296.859L73.8271 296.619C73.0247 295.151 72.2489 293.691 71.5001 292.237L71.0556 292.466C70.6038 291.589 70.1617 290.714 69.7295 289.842L70.1775 289.62C69.4291 288.11 68.7105 286.608 68.0218 285.115L67.5678 285.324C67.1534 284.426 66.7498 283.53 66.357 282.638L66.8147 282.436C66.1378 280.898 65.4934 279.369 64.8818 277.849L64.418 278.036C64.0466 277.114 63.6873 276.195 63.3402 275.279L63.8077 275.102C63.2133 273.535 62.6547 271.979 62.1324 270.435L61.6587 270.595C61.339 269.65 61.0328 268.709 60.7402 267.772L61.2174 267.623C60.7184 266.026 60.259 264.441 59.8399 262.871L59.3568 263C59.0992 262.034 58.8567 261.074 58.6293 260.119L59.1157 260.003C58.7285 258.375 58.3856 256.764 58.0877 255.168L57.5962 255.26C57.413 254.278 57.2467 253.303 57.0974 252.334L57.5916 252.258C57.3369 250.604 57.1321 248.969 56.9778 247.354L56.48 247.401C56.3854 246.411 56.3096 245.427 56.2527 244.451L56.7519 244.422C56.6548 242.753 56.6134 241.105 56.6286 239.48L56.1286 239.476C56.1379 238.485 56.168 237.503 56.2191 236.529L56.7184 236.555C56.8059 234.889 56.9553 233.248 57.1675 231.633L56.6717 231.568C56.8014 230.581 56.9544 229.603 57.1308 228.635L57.6227 228.725C57.919 227.099 58.282 225.501 58.7125 223.933L58.2304 223.801C58.4944 222.839 58.7837 221.888 59.0983 220.948L59.5725 221.107C60.0935 219.55 60.6849 218.025 61.3475 216.531L60.8905 216.328C61.2927 215.422 61.7209 214.527 62.1753 213.644L62.6199 213.872C62.9949 213.144 63.388 212.423 63.7992 211.711C64.2105 210.999 64.638 210.298 65.0816 209.609L64.6612 209.338C65.1987 208.503 65.7597 207.685 66.3437 206.883L66.7478 207.177C67.71 205.857 68.7356 204.582 69.8229 203.352L69.4484 203.021C70.105 202.279 70.784 201.553 71.4849 200.843L71.8406 201.195C72.9834 200.038 74.1855 198.924 75.4453 197.855L75.1217 197.474C75.8718 196.837 76.642 196.216 77.4321 195.61L77.7364 196.006C79.0289 195.015 80.3755 194.065 81.7748 193.156L81.5024 192.737C82.3203 192.206 83.1559 191.689 84.009 191.185L84.2631 191.616C85.6626 190.791 87.11 190.003 88.6039 189.252L88.3795 188.805C89.2536 188.366 90.1433 187.94 91.0484 187.527L91.2561 187.982C92.7326 187.308 94.2509 186.668 95.81 186.061L95.6288 185.595C96.5429 185.24 97.4707 184.896 98.4121 184.564L98.5784 185.036C100.109 184.496 101.677 183.987 103.28 183.509L103.137 183.03C104.078 182.749 105.03 182.479 105.995 182.219L106.125 182.702C107.695 182.28 109.297 181.885 110.93 181.519L110.82 181.031C111.778 180.816 112.746 180.611 113.724 180.415L113.822 180.905C115.421 180.586 117.048 180.291 118.702 180.023L118.622 179.529C119.588 179.372 120.563 179.224 121.548 179.084L121.618 179.579C123.24 179.349 124.886 179.143 126.557 178.96L126.502 178.463C127.472 178.356 128.449 178.258 129.435 178.168L129.48 178.666C131.118 178.515 132.778 178.387 134.46 178.28L134.428 177.781C135.399 177.719 136.378 177.665 137.363 177.617L137.387 178.117C139.021 178.039 140.674 177.98 142.346 177.941L142.334 177.441C143.323 177.418 144.319 177.402 145.321 177.393L145.326 177.893C146.95 177.878 148.592 177.882 150.251 177.903L150.257 177.403C151.254 177.416 152.258 177.436 153.267 177.462L153.254 177.961C154.878 178.003 156.516 178.062 158.17 178.137L158.193 177.638C159.181 177.683 160.174 177.734 161.172 177.791L161.144 178.29C162.782 178.383 164.435 178.493 166.102 178.619L166.14 178.12C167.117 178.194 168.099 178.273 169.086 178.358L169.043 178.856C170.685 178.997 172.34 179.153 174.007 179.325L174.058 178.828C175.037 178.928 176.021 179.034 177.008 179.145L176.952 179.642C178.575 179.825 180.208 180.022 181.853 180.233L181.917 179.737C182.906 179.863 183.898 179.995 184.895 180.132L184.827 180.627C186.444 180.849 188.072 181.085 189.71 181.334L189.785 180.839C190.76 180.987 191.739 181.14 192.722 181.298L192.643 181.792C194.277 182.054 195.921 182.329 197.575 182.617L197.661 182.124C198.624 182.292 199.59 182.464 200.559 182.641L200.469 183.133C202.082 183.427 203.704 183.733 205.334 184.051L205.43 183.56C206.409 183.751 207.392 183.947 208.377 184.147L208.278 184.637C209.879 184.961 211.487 185.297 213.103 185.645L213.209 185.156C214.174 185.364 215.142 185.576 216.113 185.791L216.005 186.279C217.621 186.639 219.245 187.01 220.877 187.392L220.991 186.905C221.946 187.128 222.903 187.356 223.863 187.587L223.746 188.073C225.339 188.457 226.939 188.852 228.546 189.258L228.669 188.773C229.634 189.016 230.602 189.264 231.571 189.515L231.446 189.999C233.035 190.41 234.631 190.832 236.233 191.265L236.363 190.782C237.314 191.039 238.268 191.299 239.223 191.563L239.09 192.045C240.681 192.484 242.278 192.934 243.881 193.393L244.019 192.912C244.974 193.186 245.932 193.464 246.891 193.745L246.751 194.225C248.32 194.684 249.894 195.153 251.473 195.632L251.618 195.153C252.566 195.441 253.517 195.732 254.469 196.026L254.321 196.503C255.903 196.992 257.49 197.491 259.082 197.998L259.234 197.522C260.169 197.82 261.106 198.122 262.044 198.426L261.89 198.902C263.453 199.409 265.02 199.926 266.592 200.451L266.75 199.977C267.694 200.293 268.64 200.611 269.586 200.933L269.425 201.407C270.983 201.936 272.546 202.475 274.112 203.022L274.277 202.55C275.207 202.875 276.139 203.204 277.073 203.535L276.905 204.006C278.46 204.558 280.018 205.118 281.58 205.687L281.751 205.217C282.689 205.558 283.628 205.903 284.568 206.251L284.395 206.72C285.931 207.287 287.471 207.863 289.013 208.447L289.19 207.98C290.115 208.33 291.041 208.683 291.968 209.039L291.789 209.506C293.333 210.099 294.88 210.7 296.431 211.309L296.614 210.843C297.537 211.206 298.461 211.572 299.386 211.94L299.201 212.405C300.725 213.011 302.251 213.626 303.78 214.248L303.969 213.784C304.887 214.158 305.806 214.534 306.726 214.913L306.535 215.376C308.068 216.007 309.602 216.646 311.139 217.293L311.333 216.832C312.242 217.214 313.151 217.599 314.061 217.987L313.865 218.447C315.377 219.091 316.891 219.742 318.408 220.401L318.607 219.942C319.518 220.338 320.429 220.736 321.341 221.137L321.14 221.594C322.655 222.26 324.173 222.934 325.692 223.614L325.896 223.158C326.795 223.561 327.695 223.966 328.595 224.374L328.389 224.829C329.888 225.509 331.389 226.195 332.892 226.888L333.101 226.434C334.004 226.851 334.907 227.27 335.81 227.691L335.599 228.144C337.096 228.843 338.595 229.548 340.096 230.261L340.311 229.809C341.201 230.232 342.093 230.658 342.985 231.086L342.769 231.537C344.254 232.25 345.741 232.969 347.229 233.696L347.449 233.246C348.342 233.683 349.236 234.121 350.131 234.562L349.91 235.011C351.39 235.741 352.872 236.478 354.354 237.221L354.578 236.774C355.461 237.217 356.344 237.662 357.227 238.109L357.001 238.555C358.472 239.3 359.944 240.052 361.417 240.81L361.646 240.365C362.53 240.821 363.415 241.278 364.3 241.738L364.069 242.182C365.533 242.943 366.998 243.71 368.463 244.484L368.697 244.042C369.57 244.503 370.444 244.967 371.318 245.432L371.083 245.874C372.539 246.65 373.995 247.432 375.452 248.221L375.69 247.781C376.565 248.254 377.44 248.73 378.315 249.208L378.075 249.647C379.523 250.438 380.971 251.235 382.42 252.039L382.662 251.601C383.526 252.081 384.391 252.562 385.255 253.046L385.011 253.483C386.451 254.288 387.891 255.1 389.331 255.919L389.578 255.484Z" stroke="black" stroke-opacity="0.15" stroke-dasharray="5 3"/>
<path d="M430.95 196.787C505.044 239.565 565.112 290.393 602.336 337.97C620.949 361.76 633.835 384.717 639.919 405.43C646.002 426.142 645.274 444.567 636.735 459.357C628.196 474.148 612.604 483.99 591.625 489.077C570.644 494.165 544.321 494.485 514.411 490.26C454.596 481.812 380.544 455.205 306.45 412.427C232.356 369.649 172.289 318.822 135.064 271.244C116.451 247.454 103.566 224.497 97.4819 203.784C91.3983 183.072 92.1261 164.648 100.665 149.857C109.205 135.067 124.797 125.224 145.776 120.137C166.756 115.049 193.08 114.73 222.989 118.954C282.805 127.403 356.856 154.009 430.95 196.787Z" stroke="black" stroke-opacity="0.15"/>
<path d="M460.712 130.276C461.577 130.767 462.441 131.261 463.306 131.756L463.057 132.19C463.778 132.603 464.498 133.017 465.218 133.433C465.938 133.849 466.657 134.265 467.374 134.683L467.626 134.25C468.487 134.752 469.347 135.254 470.205 135.757L469.952 136.188C471.38 137.026 472.804 137.868 474.221 138.712L474.477 138.282C475.328 138.789 476.178 139.296 477.025 139.805L476.768 140.234C478.188 141.087 479.602 141.942 481.011 142.8L481.271 142.373C482.123 142.892 482.972 143.412 483.82 143.933L483.558 144.359C484.969 145.226 486.375 146.096 487.775 146.969L488.039 146.545C488.88 147.069 489.718 147.594 490.555 148.12L490.288 148.543C491.691 149.425 493.088 150.31 494.479 151.197L494.748 150.776C495.589 151.312 496.427 151.849 497.264 152.388L496.993 152.808C498.386 153.704 499.773 154.604 501.154 155.505L501.427 155.086C502.256 155.628 503.083 156.17 503.907 156.713L503.633 157.13C505.018 158.043 506.397 158.957 507.769 159.874L508.047 159.459C508.876 160.013 509.703 160.567 510.528 161.123L510.248 161.538C511.621 162.463 512.988 163.391 514.348 164.322L514.631 163.909C515.447 164.467 516.261 165.027 517.073 165.587L516.789 165.998C518.157 166.941 519.517 167.887 520.871 168.835L521.158 168.425C521.975 168.997 522.789 169.569 523.601 170.142L523.312 170.551C524.664 171.506 526.009 172.462 527.347 173.421L527.638 173.015C528.441 173.59 529.242 174.167 530.04 174.744L529.747 175.149C531.097 176.125 532.439 177.102 533.773 178.082L534.069 177.678C534.872 178.268 535.673 178.858 536.47 179.449L536.173 179.851C537.501 180.834 538.823 181.82 540.136 182.808L540.437 182.408C541.227 183.002 542.015 183.597 542.801 184.193L542.498 184.591C543.827 185.599 545.148 186.609 546.461 187.62L546.766 187.224C547.554 187.831 548.34 188.439 549.122 189.047L548.815 189.442C550.118 190.455 551.414 191.47 552.701 192.486L553.011 192.093C553.792 192.71 554.571 193.328 555.347 193.946L555.035 194.337C556.338 195.375 557.632 196.415 558.917 197.456L559.232 197.067C560.004 197.692 560.773 198.317 561.538 198.943L561.222 199.33C562.499 200.374 563.767 201.42 565.027 202.466L565.347 202.081C566.118 202.722 566.886 203.363 567.651 204.004L567.329 204.387C568.603 205.456 569.867 206.525 571.122 207.595L571.447 207.215C572.2 207.858 572.95 208.501 573.697 209.144L573.371 209.523C574.628 210.606 575.875 211.689 577.113 212.774L577.443 212.397C578.195 213.056 578.944 213.716 579.689 214.375L579.357 214.75C580.598 215.848 581.829 216.947 583.05 218.047L583.385 217.676C584.118 218.336 584.848 218.997 585.573 219.657L585.237 220.027C586.472 221.152 587.697 222.277 588.912 223.403L589.252 223.036C589.982 223.713 590.709 224.391 591.432 225.069L591.091 225.433C592.295 226.562 593.488 227.691 594.67 228.819L595.016 228.458C595.739 229.148 596.458 229.839 597.173 230.529L596.825 230.889C598.025 232.047 599.212 233.205 600.388 234.363L600.739 234.007C601.446 234.703 602.148 235.398 602.846 236.094L602.493 236.448C603.668 237.619 604.831 238.79 605.982 239.961L606.339 239.61C607.041 240.325 607.739 241.039 608.433 241.753L608.074 242.101C609.229 243.29 610.371 244.479 611.5 245.667L611.862 245.322C612.543 246.038 613.219 246.753 613.89 247.468L613.525 247.811C614.672 249.032 615.805 250.253 616.924 251.474L617.293 251.136C617.965 251.869 618.632 252.601 619.295 253.333L618.924 253.669C620.034 254.895 621.129 256.12 622.21 257.344L622.585 257.013C623.251 257.766 623.911 258.519 624.567 259.272L624.19 259.6C625.28 260.853 626.356 262.105 627.417 263.355L627.798 263.031C628.436 263.782 629.068 264.532 629.694 265.282L629.311 265.603C630.387 266.891 631.448 268.177 632.492 269.462L632.88 269.147C633.508 269.919 634.129 270.69 634.745 271.461L634.355 271.773C635.389 273.067 636.407 274.359 637.408 275.648L637.803 275.342C638.42 276.136 639.03 276.93 639.634 277.723L639.237 278.026C640.242 279.345 641.229 280.662 642.198 281.975L642.601 281.678C643.191 282.478 643.774 283.277 644.351 284.075L643.946 284.367C644.928 285.726 645.891 287.081 646.834 288.432L647.244 288.146C647.811 288.958 648.37 289.769 648.923 290.578L648.51 290.86C649.452 292.241 650.374 293.617 651.274 294.99L651.692 294.716C652.241 295.552 652.781 296.386 653.314 297.219L652.893 297.488C653.785 298.883 654.655 300.273 655.503 301.658L655.93 301.397C656.457 302.258 656.975 303.117 657.485 303.975L657.055 304.23C657.903 305.656 658.727 307.076 659.526 308.49L659.962 308.244C660.455 309.117 660.939 309.987 661.414 310.855L660.975 311.095C661.777 312.563 662.553 314.023 663.302 315.477L663.746 315.248C664.198 316.125 664.64 317 665.072 317.872L664.625 318.094C665.373 319.604 666.091 321.106 666.78 322.599L667.234 322.39C667.649 323.288 668.052 324.184 668.445 325.076L667.987 325.278C668.664 326.816 669.309 328.345 669.92 329.865L670.384 329.678C670.755 330.6 671.115 331.519 671.462 332.435L670.994 332.612C671.589 334.179 672.147 335.735 672.67 337.279L673.143 337.119C673.463 338.064 673.769 339.005 674.062 339.942L673.585 340.091C674.084 341.688 674.543 343.273 674.962 344.843L675.445 344.714C675.703 345.68 675.945 346.64 676.173 347.595L675.686 347.711C676.073 349.339 676.416 350.95 676.714 352.546L677.206 352.454C677.389 353.436 677.555 354.411 677.705 355.38L677.21 355.456C677.465 357.11 677.67 358.745 677.824 360.36L678.322 360.313C678.417 361.303 678.492 362.287 678.549 363.263L678.05 363.292C678.147 364.961 678.189 366.609 678.173 368.234L678.673 368.238C678.664 369.229 678.634 370.211 678.583 371.185L678.084 371.159C677.996 372.825 677.847 374.466 677.634 376.081L678.13 376.146C678.001 377.133 677.848 378.111 677.671 379.079L677.179 378.989C676.883 380.615 676.52 382.213 676.089 383.781L676.572 383.913C676.308 384.875 676.018 385.826 675.704 386.766L675.229 386.607C674.708 388.164 674.117 389.689 673.454 391.183L673.911 391.386C673.509 392.292 673.081 393.187 672.627 394.07L672.182 393.842C671.807 394.57 671.414 395.291 671.003 396.003C670.591 396.715 670.164 397.416 669.72 398.105L670.141 398.376C669.603 399.211 669.042 400.029 668.458 400.831L668.054 400.537C667.092 401.857 666.066 403.132 664.979 404.362L665.354 404.693C664.697 405.435 664.018 406.161 663.317 406.871L662.961 406.519C661.819 407.676 660.616 408.79 659.357 409.859L659.68 410.24C658.93 410.877 658.16 411.498 657.37 412.104L657.066 411.707C655.773 412.699 654.426 413.649 653.027 414.558L653.3 414.977C652.482 415.508 651.646 416.025 650.793 416.529L650.539 416.098C649.139 416.923 647.692 417.711 646.198 418.462L646.422 418.908C645.548 419.348 644.659 419.774 643.754 420.187L643.546 419.732C642.069 420.406 640.551 421.046 638.992 421.653L639.173 422.119C638.259 422.474 637.331 422.818 636.39 423.15L636.224 422.678C634.693 423.218 633.125 423.727 631.522 424.205L631.665 424.684C630.724 424.965 629.772 425.235 628.807 425.495L628.677 425.012C627.107 425.434 625.505 425.829 623.872 426.195L623.982 426.683C623.024 426.898 622.056 427.103 621.078 427.299L620.98 426.809C619.381 427.128 617.754 427.423 616.1 427.691L616.18 428.185C615.214 428.342 614.239 428.49 613.254 428.63L613.184 428.135C611.562 428.365 609.916 428.571 608.245 428.754L608.3 429.251C607.33 429.358 606.353 429.456 605.367 429.546L605.322 429.048C603.684 429.199 602.024 429.327 600.342 429.434L600.374 429.933C599.403 429.995 598.424 430.049 597.439 430.097L597.415 429.597C595.781 429.675 594.128 429.734 592.456 429.773L592.468 430.273C591.479 430.296 590.483 430.312 589.481 430.321L589.476 429.821C587.852 429.835 586.21 429.832 584.551 429.811L584.545 430.311C583.548 430.298 582.544 430.278 581.535 430.252L581.548 429.753C579.924 429.711 578.286 429.652 576.632 429.577L576.609 430.076C575.621 430.031 574.628 429.98 573.63 429.923L573.658 429.424C572.02 429.331 570.366 429.221 568.7 429.095L568.662 429.594C567.685 429.52 566.703 429.441 565.716 429.356L565.759 428.858C564.117 428.717 562.462 428.561 560.795 428.389L560.744 428.886C559.765 428.786 558.781 428.68 557.794 428.569L557.85 428.072C556.227 427.889 554.594 427.692 552.948 427.481L552.885 427.977C551.896 427.851 550.904 427.719 549.907 427.582L549.975 427.087C548.358 426.865 546.73 426.629 545.092 426.38L545.017 426.875C544.042 426.727 543.063 426.574 542.08 426.416L542.159 425.922C540.525 425.66 538.881 425.385 537.226 425.097L537.141 425.589C536.178 425.422 535.212 425.25 534.243 425.073L534.333 424.581C532.72 424.287 531.098 423.981 529.468 423.663L529.372 424.154C528.393 423.963 527.41 423.767 526.424 423.567L526.524 423.077C524.923 422.753 523.315 422.417 521.698 422.069L521.593 422.558C520.628 422.35 519.66 422.138 518.689 421.923L518.797 421.434C517.181 421.075 515.557 420.704 513.925 420.322L513.811 420.809C512.856 420.586 511.899 420.358 510.939 420.127L511.056 419.641C509.463 419.257 507.862 418.862 506.256 418.456L506.133 418.941C505.168 418.698 504.2 418.45 503.231 418.199L503.356 417.715C501.767 417.303 500.171 416.882 498.569 416.449L498.439 416.932C497.488 416.675 496.534 416.415 495.578 416.151L495.712 415.669C494.121 415.23 492.524 414.78 490.921 414.321L490.783 414.802C489.828 414.528 488.87 414.25 487.911 413.969L488.051 413.489C486.482 413.03 484.908 412.561 483.329 412.082L483.184 412.561C482.236 412.273 481.285 411.982 480.333 411.688L480.481 411.211C478.899 410.722 477.312 410.223 475.72 409.716L475.568 410.192C474.633 409.894 473.696 409.592 472.757 409.288L472.912 408.812C471.349 408.305 469.782 407.788 468.21 407.263L468.052 407.737C467.108 407.421 466.162 407.103 465.216 406.781L465.376 406.307C463.818 405.778 462.256 405.239 460.69 404.692L460.525 405.164C459.595 404.839 458.663 404.51 457.729 404.179L457.896 403.708C456.342 403.156 454.784 402.596 453.222 402.027L453.051 402.497C452.113 402.156 451.174 401.811 450.233 401.463L450.407 400.994C448.871 400.427 447.331 399.851 445.789 399.267L445.612 399.734C444.687 399.384 443.761 399.031 442.834 398.675L443.013 398.208C441.469 397.615 439.921 397.014 438.371 396.405L438.188 396.871C437.265 396.508 436.341 396.142 435.416 395.774L435.6 395.309C434.077 394.703 432.551 394.088 431.022 393.466L430.833 393.929C429.915 393.556 428.996 393.18 428.076 392.801L428.267 392.338C426.734 391.707 425.2 391.068 423.662 390.421L423.469 390.882C422.56 390.5 421.651 390.115 420.741 389.727L420.937 389.267C419.425 388.623 417.911 387.972 416.394 387.313L416.195 387.772C415.284 387.376 414.373 386.978 413.461 386.577L413.662 386.12C412.147 385.454 410.629 384.78 409.11 384.1L408.906 384.556C408.007 384.153 407.107 383.748 406.207 383.34L406.413 382.885C404.914 382.205 403.413 381.519 401.91 380.826L401.7 381.28C400.798 380.863 399.895 380.444 398.992 380.023L399.203 379.57C397.706 378.871 396.206 378.166 394.706 377.453L394.491 377.905C393.6 377.482 392.709 377.056 391.817 376.628L392.033 376.177C390.548 375.464 389.061 374.745 387.572 374.018L387.353 374.468C386.46 374.031 385.566 373.593 384.671 373.152L384.892 372.703C383.412 371.973 381.93 371.236 380.448 370.493L380.223 370.94C379.341 370.497 378.458 370.052 377.575 369.605L377.801 369.159C376.33 368.414 374.858 367.662 373.385 366.904L373.156 367.349C372.272 366.893 371.387 366.436 370.502 365.976L370.733 365.532C369.269 364.771 367.804 364.004 366.339 363.23L366.105 363.672C365.232 363.211 364.358 362.747 363.484 362.282L363.719 361.84C362.263 361.064 360.807 360.282 359.35 359.493L359.112 359.933C358.237 359.46 357.362 358.984 356.487 358.506L356.727 358.067C355.279 357.276 353.831 356.479 352.382 355.675L352.14 356.113C351.276 355.633 350.411 355.152 349.547 354.668L349.791 354.231C348.351 353.426 346.911 352.614 345.471 351.795L345.224 352.23C344.359 351.739 343.494 351.246 342.63 350.75L342.878 350.316C342.158 349.903 341.438 349.489 340.718 349.073C339.998 348.658 339.279 348.241 338.561 347.824L338.31 348.256C337.448 347.755 336.589 347.253 335.731 346.749L335.984 346.318C334.555 345.48 333.132 344.639 331.714 343.795L331.459 344.224C330.607 343.718 329.758 343.21 328.911 342.701L329.168 342.272C327.748 341.42 326.333 340.564 324.924 339.706L324.664 340.133C323.813 339.614 322.963 339.094 322.116 338.574L322.378 338.148C320.966 337.28 319.561 336.41 318.161 335.537L317.896 335.962C317.056 335.438 316.217 334.913 315.381 334.387L315.647 333.964C314.244 333.081 312.848 332.197 311.457 331.309L311.188 331.731C310.347 331.194 309.508 330.657 308.672 330.119L308.943 329.698C307.55 328.802 306.163 327.903 304.782 327.001L304.509 327.42C303.68 326.879 302.853 326.337 302.028 325.794L302.303 325.376C300.918 324.464 299.539 323.549 298.167 322.632L297.889 323.048C297.06 322.494 296.233 321.939 295.408 321.383L295.688 320.969C294.314 320.043 292.948 319.115 291.587 318.185L291.305 318.598C290.489 318.039 289.674 317.48 288.862 316.92L289.146 316.508C287.779 315.565 286.418 314.619 285.065 313.672L284.778 314.081C283.961 313.51 283.147 312.937 282.335 312.364L282.624 311.956C281.272 311.001 279.927 310.044 278.589 309.085L278.298 309.492C277.494 308.916 276.694 308.339 275.895 307.762L276.188 307.357C274.839 306.382 273.497 305.404 272.163 304.425L271.867 304.828C271.064 304.238 270.263 303.648 269.465 303.058L269.763 302.656C268.434 301.672 267.113 300.686 265.799 299.699L265.499 300.098C264.708 299.504 263.92 298.909 263.135 298.313L263.437 297.915C262.109 296.907 260.788 295.898 259.475 294.886L259.17 295.283C258.382 294.675 257.596 294.068 256.814 293.459L257.121 293.065C255.817 292.051 254.522 291.037 253.235 290.021L252.925 290.413C252.143 289.796 251.365 289.178 250.589 288.56L250.901 288.169C249.598 287.131 248.304 286.092 247.018 285.051L246.704 285.439C245.932 284.814 245.163 284.189 244.397 283.563L244.714 283.176C243.437 282.132 242.168 281.087 240.909 280.04L240.589 280.425C239.818 279.784 239.05 279.143 238.285 278.502L238.606 278.119C237.333 277.051 236.069 275.981 234.814 274.911L234.489 275.291C233.736 274.649 232.985 274.006 232.238 273.362L232.565 272.983C231.308 271.901 230.06 270.817 228.823 269.733L228.493 270.109C227.741 269.45 226.992 268.791 226.247 268.131L226.578 267.757C225.337 266.658 224.107 265.559 222.886 264.459L222.551 264.831C221.818 264.17 221.088 263.51 220.362 262.849L220.699 262.479C219.463 261.355 218.238 260.229 217.024 259.104L216.684 259.47C215.953 258.793 215.226 258.115 214.503 257.438L214.845 257.073C213.641 255.945 212.448 254.816 211.265 253.687L210.92 254.049C210.197 253.358 209.478 252.668 208.763 251.977L209.11 251.617C207.911 250.459 206.723 249.301 205.547 248.143L205.196 248.499C204.49 247.803 203.788 247.108 203.09 246.412L203.443 246.058C202.268 244.887 201.105 243.716 199.953 242.546L199.597 242.896C198.894 242.182 198.196 241.468 197.503 240.753L197.862 240.405C196.707 239.216 195.565 238.028 194.436 236.84L194.073 237.184C193.393 236.469 192.717 235.753 192.046 235.038L192.411 234.696C191.264 233.474 190.131 232.253 189.012 231.033L188.643 231.371C187.971 230.638 187.303 229.905 186.641 229.173L187.011 228.837C185.902 227.611 184.807 226.386 183.725 225.163L183.351 225.494C182.685 224.74 182.024 223.987 181.369 223.234L181.746 222.906C180.655 221.653 179.579 220.402 178.519 219.152L178.137 219.475C177.5 218.724 176.868 217.974 176.242 217.224L176.625 216.904C175.549 215.615 174.488 214.329 173.444 213.044L173.056 213.36C172.428 212.588 171.806 211.816 171.19 211.046L171.581 210.734C170.546 209.439 169.529 208.147 168.528 206.858L168.133 207.165C167.516 206.37 166.905 205.576 166.301 204.783L166.699 204.48C165.694 203.161 164.707 201.845 163.737 200.531L163.335 200.828C162.745 200.028 162.161 199.229 161.585 198.432L161.99 198.139C161.008 196.781 160.045 195.426 159.102 194.075L158.692 194.361C158.125 193.549 157.566 192.738 157.013 191.928L157.426 191.646C156.484 190.266 155.562 188.889 154.662 187.516L154.244 187.791C153.695 186.955 153.154 186.12 152.622 185.287L153.043 185.018C152.151 183.623 151.28 182.233 150.433 180.848L150.006 181.109C149.479 180.248 148.961 179.389 148.451 178.532L148.88 178.276C148.033 176.85 147.209 175.43 146.409 174.016L145.974 174.262C145.481 173.389 144.997 172.519 144.522 171.651L144.961 171.411C144.158 169.944 143.383 168.483 142.634 167.029L142.189 167.258C141.738 166.381 141.295 165.506 140.863 164.634L141.311 164.412C140.563 162.903 139.844 161.401 139.156 159.907L138.702 160.117C138.287 159.218 137.884 158.322 137.491 157.43L137.948 157.229C137.272 155.69 136.627 154.161 136.016 152.642L135.552 152.828C135.18 151.906 134.821 150.987 134.474 150.072L134.941 149.894C134.347 148.327 133.789 146.771 133.266 145.227L132.793 145.387C132.473 144.442 132.167 143.501 131.874 142.564L132.351 142.415C131.852 140.818 131.393 139.234 130.974 137.663L130.491 137.792C130.233 136.826 129.99 135.866 129.763 134.911L130.25 134.795C129.862 133.168 129.519 131.556 129.222 129.96L128.73 130.052C128.547 129.071 128.381 128.095 128.231 127.126L128.725 127.05C128.471 125.397 128.266 123.762 128.112 122.146L127.614 122.194C127.519 121.203 127.443 120.219 127.387 119.243L127.886 119.214C127.789 117.545 127.747 115.898 127.762 114.273L127.262 114.268C127.272 113.278 127.302 112.295 127.353 111.321L127.852 111.348C127.94 109.681 128.089 108.04 128.301 106.425L127.806 106.36C127.935 105.373 128.088 104.395 128.265 103.427L128.756 103.517C129.053 101.891 129.416 100.294 129.846 98.7253L129.364 98.5929C129.628 97.6312 129.917 96.6802 130.232 95.7403L130.706 95.8991C131.227 94.3426 131.819 92.817 132.481 91.3234L132.024 91.1207C132.426 90.2141 132.855 89.3191 133.309 88.436L133.754 88.6648C134.129 87.936 134.522 87.2154 134.933 86.5032C135.344 85.7909 135.772 85.0902 136.215 84.401L135.795 84.1304C136.333 83.2953 136.893 82.477 137.478 81.6754L137.882 81.9698C138.844 80.6492 139.869 79.3742 140.957 78.1448L140.582 77.8135C141.239 77.071 141.918 76.3451 142.619 75.6355L142.974 75.9869C144.117 74.8299 145.319 73.7168 146.579 72.6472L146.255 72.2661C147.006 71.6293 147.776 71.008 148.566 70.4021L148.87 70.7988C150.163 69.8077 151.509 68.8577 152.909 67.9488L152.636 67.5295C153.454 66.9982 154.29 66.481 155.143 65.9778L155.397 66.4085C156.796 65.5829 158.244 64.795 159.738 64.0446L159.513 63.5978C160.387 63.1588 161.277 62.7327 162.182 62.3193L162.39 62.7742C163.866 62.1 165.385 61.4599 166.944 60.8538L166.763 60.3878C167.677 60.0324 168.604 59.6888 169.546 59.3568L169.712 59.8283C171.243 59.2885 172.81 58.7794 174.413 58.3012L174.27 57.822C175.211 57.5413 176.164 57.2712 177.129 57.0116L177.259 57.4944C178.829 57.072 180.431 56.6777 182.063 56.3113L181.954 55.8234C182.911 55.6085 183.879 55.4032 184.858 55.2075L184.956 55.6978C186.555 55.3779 188.181 55.0837 189.836 54.8149L189.755 54.3214C190.722 54.1644 191.697 54.0161 192.682 53.8764L192.752 54.3714C194.373 54.1414 196.02 53.935 197.691 53.752L197.636 53.2549C198.606 53.1488 199.583 53.0505 200.569 52.96L200.614 53.4579C202.252 53.3076 203.912 53.1791 205.593 53.0723L205.562 52.5733C206.533 52.5116 207.512 52.4571 208.497 52.4098L208.521 52.9092C210.155 52.8309 211.807 52.7724 213.479 52.7336L213.468 52.2337C214.457 52.2108 215.453 52.1948 216.455 52.1857L216.46 52.6856C218.084 52.6709 219.726 52.6742 221.384 52.6956L221.391 52.1957C222.388 52.2085 223.392 52.2279 224.401 52.2539L224.388 52.7537C226.011 52.7954 227.65 52.854 229.304 52.9294L229.327 52.4299C230.315 52.4749 231.308 52.5259 232.306 52.5829L232.277 53.0821C233.916 53.1756 235.569 53.2853 237.236 53.4111L237.274 52.9125C238.251 52.9862 239.233 53.0655 240.22 53.1502L240.177 53.6484C241.819 53.7894 243.473 53.9457 245.141 54.1173L245.192 53.6199C246.171 53.7206 247.154 53.8266 248.142 53.9378L248.086 54.4346C249.708 54.6172 251.342 54.814 252.987 55.0249L253.051 54.5289C254.039 54.6556 255.032 54.7874 256.029 54.9243L255.961 55.4196C257.578 55.6417 259.206 55.8772 260.844 56.1259L260.919 55.6316C261.894 55.7797 262.873 55.9326 263.855 56.0902L263.776 56.5839C265.411 56.846 267.055 57.1212 268.709 57.4094L268.795 56.9168C269.758 57.0845 270.723 57.2567 271.692 57.4332L271.603 57.9251C273.216 58.2189 274.837 58.5249 276.468 58.8431L276.564 58.3523C277.543 58.5435 278.526 58.739 279.511 58.9389L279.412 59.4289C281.012 59.7535 282.621 60.0896 284.237 60.4373L284.342 59.9485C285.308 60.1561 286.276 60.3679 287.247 60.5838L287.139 61.0718C288.755 61.4312 290.379 61.8019 292.01 62.1839L292.124 61.6971C293.079 61.9207 294.037 62.1483 294.997 62.3796L294.88 62.8657C296.473 63.2498 298.073 63.6446 299.68 64.05L299.803 63.5652C300.768 63.8087 301.735 64.056 302.705 64.3072L302.58 64.7913C304.169 65.2028 305.765 65.6248 307.367 66.0569L307.497 65.5742C308.448 65.8309 309.402 66.0912 310.357 66.3551L310.224 66.8371C311.815 67.2765 313.412 67.726 315.015 68.1855L315.153 67.7048C316.108 67.9788 317.066 68.2563 318.025 68.5373L317.885 69.0172C319.453 69.4767 321.028 69.9457 322.607 70.4243L322.752 69.9457C323.7 70.2331 324.65 70.5239 325.602 70.8181L325.455 71.2958C327.037 71.7846 328.624 72.2829 330.216 72.7906L330.368 72.3142C331.303 72.6125 332.24 72.914 333.178 73.2188L333.024 73.6943C334.587 74.2018 336.154 74.7183 337.726 75.2437L337.884 74.7695C338.828 75.085 339.773 75.4037 340.72 75.7257L340.559 76.1991C342.117 76.7288 343.679 77.2673 345.245 77.8145L345.41 77.3425C346.341 77.6677 347.273 77.9959 348.207 78.3272L348.039 78.7984C349.594 79.3501 351.152 79.9104 352.714 80.4791L352.885 80.0093C353.823 80.3508 354.762 80.6954 355.702 81.043L355.529 81.512C357.065 82.0798 358.604 82.6557 360.147 83.2398L360.324 82.7722C361.249 83.1224 362.175 83.4754 363.102 83.8315L362.923 84.2982C364.467 84.8911 366.014 85.492 367.565 86.1011L367.747 85.6357C368.671 85.9984 369.595 86.364 370.52 86.7324L370.335 87.197C371.859 87.8035 373.385 88.4179 374.914 89.04L375.103 88.5768C376.021 88.9504 376.94 89.3267 377.86 89.7058L377.669 90.1681C379.201 90.7994 380.736 91.4385 382.273 92.0853L382.467 91.6244C383.376 92.0066 384.285 92.3915 385.195 92.779L384.999 93.239C386.511 93.883 388.025 94.5343 389.542 95.193L389.741 94.7344C390.651 95.13 391.563 95.5281 392.475 95.929L392.274 96.3867C393.789 97.0527 395.306 97.7261 396.826 98.4068L397.03 97.9505C397.929 98.3532 398.829 98.7585 399.729 99.1663L399.523 99.6218C401.022 100.301 402.523 100.987 404.026 101.681L404.235 101.227C405.138 101.643 406.041 102.062 406.944 102.483L406.733 102.937C408.23 103.635 409.729 104.341 411.23 105.053L411.444 104.602C412.335 105.025 413.227 105.45 414.119 105.878L413.902 106.329C415.388 107.042 416.875 107.762 418.363 108.488L418.583 108.039C419.476 108.475 420.37 108.914 421.265 109.355L421.043 109.803C422.524 110.533 424.005 111.27 425.488 112.014L425.712 111.567C426.595 112.009 427.478 112.454 428.361 112.901L428.135 113.348C429.606 114.093 431.078 114.844 432.551 115.602L432.78 115.158C433.664 115.613 434.549 116.07 435.434 116.53L435.203 116.974C436.667 117.735 438.132 118.502 439.597 119.276L439.831 118.834C440.704 119.295 441.578 119.759 442.452 120.225L442.217 120.666C443.673 121.442 445.129 122.224 446.586 123.013L446.824 122.573C447.699 123.047 448.573 123.522 449.448 124L449.209 124.439C450.657 125.23 452.105 126.028 453.553 126.831L453.796 126.394C454.66 126.873 455.524 127.355 456.389 127.839L456.145 128.275C457.585 129.081 459.025 129.893 460.465 130.711L460.712 130.276Z" stroke="black" stroke-opacity="0.15" stroke-dasharray="5 3"/>
</svg>
