<svg width="46" height="46" viewBox="0 0 46 46" fill="none" xmlns="http://www.w3.org/2000/svg">
<g filter="url(#filter0_d_3630_13459)">
<circle cx="23" cy="21" r="20" fill="white"/>
</g>
<path fill-rule="evenodd" clip-rule="evenodd" d="M12.957 19.6052V15.6783C12.9562 15.552 12.989 15.4277 13.0521 15.3183C13.1152 15.2089 13.2063 15.1182 13.316 15.0556L22.6409 9.72755C22.7491 9.66509 22.8718 9.6322 22.9968 9.6322C23.1217 9.6322 23.2444 9.66509 23.3526 9.72755L26.7998 11.6942C26.8215 11.7067 26.8396 11.7248 26.8522 11.7465C26.8648 11.7683 26.8714 11.793 26.8714 11.8181C26.8714 11.8432 26.8648 11.8679 26.8522 11.8897C26.8396 11.9114 26.8215 11.9295 26.7998 11.942L13.1731 19.7291C13.1513 19.7421 13.1265 19.749 13.1011 19.7492C13.0758 19.7494 13.0509 19.7429 13.0289 19.7303C13.0069 19.7177 12.9887 19.6994 12.976 19.6775C12.9634 19.6555 12.9569 19.6306 12.957 19.6052ZM13.1033 23.2143L29.8881 13.6226C29.9311 13.5978 29.9798 13.5847 30.0295 13.5847C30.0791 13.5847 30.1279 13.5978 30.1709 13.6226L32.6808 15.0554C32.7925 15.1192 32.8851 15.2118 32.9488 15.3236C33.0126 15.4354 33.0451 15.5622 33.043 15.6909V18.5503C33.0429 18.6013 33.0294 18.6514 33.0037 18.6955C32.978 18.7396 32.9412 18.7761 32.8968 18.8013L16.1121 28.393C16.0677 28.4154 16.0188 28.427 15.9691 28.427C15.9194 28.427 15.8705 28.4154 15.8261 28.393L13.3194 26.957C13.2072 26.8937 13.1142 26.8012 13.0504 26.6893C12.9866 26.5774 12.9544 26.4503 12.9572 26.3215V23.4621C12.9572 23.4115 12.9707 23.3618 12.9964 23.3182C13.0221 23.2747 13.059 23.2388 13.1033 23.2143ZM19.2005 30.3057L22.6445 32.2755C22.7532 32.3364 22.8757 32.3684 23.0003 32.3684C23.1249 32.3684 23.2475 32.3364 23.3562 32.2755L32.681 26.9443C32.7928 26.8805 32.8854 26.7879 32.9491 26.6761C33.0128 26.5644 33.0453 26.4375 33.0432 26.3089V22.3946C33.0425 22.3697 33.0353 22.3453 33.0225 22.3239C33.0096 22.3025 32.9915 22.2847 32.9698 22.2723C32.9482 22.2598 32.9237 22.2532 32.8987 22.2529C32.8737 22.2526 32.8491 22.2588 32.8272 22.2707L19.2005 30.0579C19.1787 30.0704 19.1606 30.0885 19.148 30.1102C19.1355 30.132 19.1288 30.1566 19.1288 30.1818C19.1288 30.2069 19.1355 30.2316 19.148 30.2533C19.1606 30.2751 19.1787 30.2931 19.2005 30.3057Z" fill="url(#paint0_linear_3630_13459)"/>
<defs>
<filter id="filter0_d_3630_13459" x="0" y="0" width="46" height="46" filterUnits="userSpaceOnUse" color-interpolation-filters="sRGB">
<feFlood flood-opacity="0" result="BackgroundImageFix"/>
<feColorMatrix in="SourceAlpha" type="matrix" values="0 0 0 0 0 0 0 0 0 0 0 0 0 0 0 0 0 0 127 0" result="hardAlpha"/>
<feOffset dy="2"/>
<feGaussianBlur stdDeviation="1.5"/>
<feComposite in2="hardAlpha" operator="out"/>
<feColorMatrix type="matrix" values="0 0 0 0 0.0740929 0 0 0 0 0.204551 0 0 0 0 0.30022 0 0 0 0.15 0"/>
<feBlend mode="normal" in2="BackgroundImageFix" result="effect1_dropShadow_3630_13459"/>
<feBlend mode="normal" in="SourceGraphic" in2="effect1_dropShadow_3630_13459" result="shape"/>
</filter>
<linearGradient id="paint0_linear_3630_13459" x1="12.957" y1="13.6955" x2="31.8482" y2="29.2483" gradientUnits="userSpaceOnUse">
<stop offset="0.065163" stop-color="#60FEFE"/>
<stop offset="0.208512" stop-color="#3385FF"/>
<stop offset="0.462422" stop-color="#3347FF"/>
<stop offset="0.810839" stop-color="#CB60FE"/>
<stop offset="1" stop-color="#FE8660"/>
</linearGradient>
</defs>
</svg>
