<svg width="24" height="24" viewBox="0 0 24 24" fill="none" xmlns="http://www.w3.org/2000/svg">
<path fill-rule="evenodd" clip-rule="evenodd" d="M5.59393 4.99037L4.53699 8.37809C4.365 8.67241 4.2459 9.00224 4.19284 9.35507L4.09091 10.0329C3.69516 12.6646 3.73216 15.3433 4.20044 17.963C4.39049 19.0262 5.26362 19.8338 6.3384 19.9405L7.56886 20.0626C10.5157 20.3551 13.4843 20.3551 16.4311 20.0626L17.6616 19.9405C18.7363 19.8338 19.6095 19.0262 19.7995 17.963C20.2678 15.3433 20.3048 12.6646 19.909 10.0329L19.8071 9.35507C19.7519 8.98775 19.6251 8.64535 19.4415 8.34201L18.4051 4.99449C18.1365 4.12692 17.3905 3.4929 16.491 3.36772C13.5113 2.95308 10.4871 2.95331 7.5075 3.36795C6.60973 3.49288 5.86401 4.1247 5.59393 4.99037ZM16.2842 4.85341C13.4418 4.45786 10.5567 4.45807 7.71424 4.85363C7.39112 4.8986 7.1229 5.12606 7.02586 5.43712L6.52473 7.04334C6.56234 7.03803 6.6002 7.03348 6.63829 7.0297L7.61648 6.93261C10.5316 6.64327 13.4683 6.64327 16.3835 6.93261L17.3617 7.0297C17.3976 7.03327 17.4334 7.03753 17.4689 7.04246L16.9722 5.43811C16.8757 5.12628 16.6076 4.8984 16.2842 4.85341ZM16 11.75C16.4142 11.75 16.75 11.4142 16.75 11C16.75 10.5858 16.4142 10.25 16 10.25H8C7.58579 10.25 7.25 10.5858 7.25 11C7.25 11.4142 7.58579 11.75 8 11.75H16Z" fill="white"/>
</svg>
