<svg width="24" height="24" viewBox="0 0 24 24" fill="none" xmlns="http://www.w3.org/2000/svg">
<path d="M13.7958 4.13612C12.8133 3.1215 11.1861 3.1215 10.2037 4.13611L5.40521 9.09185C5.12963 9.37646 4.94444 9.73627 4.87299 10.1259C4.29023 13.3039 4.24721 16.5574 4.74574 19.7496L4.92225 20.8798C4.978 21.2368 5.28546 21.5 5.64677 21.5H8.99973C9.27587 21.5 9.49973 21.2761 9.49973 21V14H14.4997V21C14.4997 21.2761 14.7236 21.5 14.9997 21.5H18.3526C18.7139 21.5 19.0214 21.2368 19.0772 20.8798L19.2537 19.7496C19.7522 16.5574 19.7092 13.3039 19.1264 10.1259C19.055 9.73627 18.8698 9.37646 18.5942 9.09185L13.7958 4.13612Z" fill="white"/>
</svg>
