<svg width="18" height="18" viewBox="0 0 18 18" fill="none" xmlns="http://www.w3.org/2000/svg">
<g clip-path="url(#clip0_3906_11324)">
<path d="M15.7529 4.13353L17.0353 2.90674V2.63821H12.5929L9.42681 10.5186L5.8248 2.63821H1.16677V2.90674L2.66476 4.71009C2.81074 4.84335 2.88708 5.03821 2.86766 5.23442V12.3212C2.91387 12.5764 2.83083 12.8389 2.65137 13.0244L0.963867 15.0695V15.3346H5.74846V15.0661L4.06096 13.0244C3.87815 12.8382 3.79177 12.5804 3.8286 12.3212V6.19134L8.0286 15.338H8.51677L12.1282 6.19134V13.4777C12.1282 13.6699 12.1281 13.7094 12.0023 13.8353L10.7031 15.0922V15.3614H17.0058V15.0929L15.7536 13.8668C15.6438 13.7838 15.5869 13.6445 15.6103 13.5092V4.49112C15.5869 4.35518 15.6431 4.21589 15.7529 4.13353Z" fill="white"/>
</g>
<defs>
<clipPath id="clip0_3906_11324">
<rect width="16.0714" height="16.0714" fill="white" transform="translate(0.963867 0.964279)"/>
</clipPath>
</defs>
</svg>
